name rise34.3697peak60.0498fall86.3158.mot
datacolumns 19
datarows 26
range 22.70491800000000 22.74657800000000
endheader
time	ground_force1_vx	ground_force1_vy	ground_force1_vz	ground_force1_px	ground_force1_py	ground_force1_pz	ground_force2_vx	ground_force2_vy	ground_force2_vz	ground_force2_px	ground_force2_py	ground_force2_pz	ground_torque1_x	ground_torque1_y	ground_torque1_z	ground_torque2_x	ground_torque2_y	ground_torque2_z	
22.70491800000000	-8.88290900000000	41.41169100000000	-7.06117100000000	0.38365400000000	0.00000000000000	0.12354500000000	-36.16092900000000	769.98172499999998	-53.25247500000000	0.18940400000000	0.00000000000000	-0.07546000000000	0.00000000000000	-4.77734200000000	0.00000000000000	0.00000000000000	-22.50741400000000	0.00000000000000	
22.70658200000000	-9.69797600000000	48.56503500000000	-7.86843200000000	0.38463400000000	0.00000000000000	0.12451000000000	-36.50413000000000	767.14731200000006	-52.88818200000000	0.18853800000000	0.00000000000000	-0.07537800000000	0.00000000000000	-5.37424900000000	0.00000000000000	0.00000000000000	-22.35513000000000	0.00000000000000	
22.70824700000000	-10.33442700000000	55.81753100000000	-8.57524000000000	0.38562400000000	0.00000000000000	0.12537800000000	-36.86975700000000	764.22583899999995	-52.50854500000000	0.18765800000000	0.00000000000000	-0.07529300000000	0.00000000000000	-5.91927600000000	0.00000000000000	0.00000000000000	-22.20376000000000	0.00000000000000	
22.70991200000000	-10.76855200000000	63.07712500000000	-9.16243200000000	0.38662600000000	0.00000000000000	0.12616600000000	-37.25808600000000	761.21704099999999	-52.11370800000000	0.18676500000000	0.00000000000000	-0.07520700000000	0.00000000000000	-6.40011500000000	0.00000000000000	0.00000000000000	-22.05346500000000	0.00000000000000	
22.71157700000000	-10.98689000000000	70.27428100000000	-9.61767500000000	0.38764400000000	0.00000000000000	0.12688400000000	-37.66930000000000	758.12054899999998	-51.70381800000000	0.18585900000000	0.00000000000000	-0.07511800000000	0.00000000000000	-6.80856400000000	0.00000000000000	0.00000000000000	-21.90439300000000	0.00000000000000	
22.71325000000000	-10.98601300000000	77.36414000000001	-9.93548000000000	0.38868200000000	0.00000000000000	0.12754100000000	-38.10348700000000	754.93588199999999	-51.27902900000000	0.18494100000000	0.00000000000000	-0.07502600000000	0.00000000000000	-7.14058900000000	0.00000000000000	0.00000000000000	-21.75667200000000	0.00000000000000	
22.71491800000000	-10.77153300000000	84.32629300000001	-10.11666400000000	0.38973800000000	0.00000000000000	0.12814700000000	-38.56063400000000	751.66244900000004	-50.83949400000000	0.18401200000000	0.00000000000000	-0.07493300000000	0.00000000000000	-7.39602300000000	0.00000000000000	0.00000000000000	-21.61041700000000	0.00000000000000	
22.71657800000000	-10.35652800000000	91.16256400000000	-10.16737800000000	0.39081600000000	0.00000000000000	0.12870600000000	-39.04062800000000	748.29954499999997	-50.38537400000000	0.18307200000000	0.00000000000000	-0.07483700000000	0.00000000000000	-7.57801400000000	0.00000000000000	0.00000000000000	-21.46572400000000	0.00000000000000	
22.71825000000000	-9.75963500000000	97.89334700000001	-10.09787700000000	0.39191400000000	0.00000000000000	0.12922500000000	-39.54325000000000	744.84635500000002	-49.91682900000000	0.18212400000000	0.00000000000000	-0.07473800000000	0.00000000000000	-7.69228100000000	0.00000000000000	0.00000000000000	-21.32267200000000	0.00000000000000	
22.71991600000000	-9.00300800000000	104.55304300000000	-9.92115900000000	0.39303300000000	0.00000000000000	0.12970800000000	-40.06817800000000	741.30195000000003	-49.43402700000000	0.18116900000000	0.00000000000000	-0.07463700000000	0.00000000000000	-7.74630200000000	0.00000000000000	0.00000000000000	-21.18132000000000	0.00000000000000	
22.72157700000000	-8.11035100000000	111.18513299999999	-9.65162500000000	0.39417100000000	0.00000000000000	0.13015900000000	-40.61497900000000	737.66529100000002	-48.93713700000000	0.18020700000000	0.00000000000000	-0.07453300000000	0.00000000000000	-7.74848300000000	0.00000000000000	0.00000000000000	-21.04170900000000	0.00000000000000	
22.72324800000000	-7.10515000000000	117.83735299999999	-9.30384900000000	0.39532900000000	0.00000000000000	0.13058200000000	-41.18311200000000	733.93523000000005	-48.42633400000000	0.17923900000000	0.00000000000000	-0.07442600000000	0.00000000000000	-7.70740800000000	0.00000000000000	0.00000000000000	-20.90386200000000	0.00000000000000	
22.72491200000000	-6.00923300000000	124.55733400000000	-8.89155300000000	0.39650600000000	0.00000000000000	0.13097800000000	-41.77192800000000	730.11051499999996	-47.90179500000000	0.17826800000000	0.00000000000000	-0.07431700000000	0.00000000000000	-7.63118800000000	0.00000000000000	0.00000000000000	-20.76778100000000	0.00000000000000	
22.72658300000000	-4.84169900000000	131.38897900000001	-8.42682700000000	0.39770000000000	0.00000000000000	0.13135000000000	-42.38066500000000	726.18979400000001	-47.36370400000000	0.17729500000000	0.00000000000000	-0.07420500000000	0.00000000000000	-7.52696300000000	0.00000000000000	0.00000000000000	-20.63344800000000	0.00000000000000	
22.72824300000000	-3.61824400000000	138.36971199999999	-7.91959800000000	0.39891000000000	0.00000000000000	0.13170100000000	-43.00845000000000	722.17161499999997	-46.81225200000000	0.17632100000000	0.00000000000000	-0.07409000000000	0.00000000000000	-7.40055900000000	0.00000000000000	0.00000000000000	-20.50082600000000	0.00000000000000	
22.72991700000000	-2.35085400000000	145.52866900000001	-7.37737100000000	0.40013500000000	0.00000000000000	0.13203200000000	-43.65430100000000	718.05444000000000	-46.24763400000000	0.17534800000000	0.00000000000000	-0.07397200000000	0.00000000000000	-7.25630600000000	0.00000000000000	0.00000000000000	-20.36985700000000	0.00000000000000	
22.73158500000000	-1.04783800000000	152.88579100000001	-6.80519200000000	0.40137400000000	0.00000000000000	0.13234400000000	-44.31712600000000	713.83664299999998	-45.67005200000000	0.17437700000000	0.00000000000000	-0.07385100000000	0.00000000000000	-7.09699100000000	0.00000000000000	0.00000000000000	-20.24046500000000	0.00000000000000	
22.73324300000000	0.28587500000000	160.45173000000000	-6.20580500000000	0.40262500000000	0.00000000000000	0.13264000000000	-44.99572200000000	709.51652400000000	-45.07971600000000	0.17341000000000	0.00000000000000	-0.07372700000000	0.00000000000000	-6.92394700000000	0.00000000000000	0.00000000000000	-20.11255200000000	0.00000000000000	
22.73491200000000	1.64824300000000	168.22841500000001	-5.57995100000000	0.40388800000000	0.00000000000000	0.13292000000000	-45.68878200000000	705.09231199999999	-44.47684500000000	0.17244900000000	0.00000000000000	-0.07359900000000	0.00000000000000	-6.73721800000000	0.00000000000000	0.00000000000000	-19.98600100000000	0.00000000000000	
22.73658100000000	3.03949100000000	176.21012700000000	-4.92676900000000	0.40515900000000	0.00000000000000	0.13318600000000	-46.39489100000000	700.56217800000002	-43.86166800000000	0.17149600000000	0.00000000000000	-0.07346900000000	0.00000000000000	-6.53580600000000	0.00000000000000	0.00000000000000	-19.86067600000000	0.00000000000000	
22.73824600000000	4.46143700000000	184.38490200000001	-4.24423800000000	0.40643900000000	0.00000000000000	0.13343800000000	-47.11253200000000	695.92424300000005	-43.23442200000000	0.17055100000000	0.00000000000000	-0.07333400000000	0.00000000000000	-6.31793800000000	0.00000000000000	0.00000000000000	-19.73642300000000	0.00000000000000	
22.73991400000000	5.91682300000000	192.73609999999999	-3.52963700000000	0.40772500000000	0.00000000000000	0.13367700000000	-47.84008700000000	691.17658700000004	-42.59535500000000	0.16961800000000	0.00000000000000	-0.07319700000000	0.00000000000000	-6.08135500000000	0.00000000000000	0.00000000000000	-19.61306600000000	0.00000000000000	
22.74158400000000	7.40870300000000	201.24398600000001	-2.77996500000000	0.40901600000000	0.00000000000000	0.13390400000000	-48.57584500000000	686.31726700000002	-41.94472900000000	0.16869700000000	0.00000000000000	-0.07305600000000	0.00000000000000	-5.82357800000000	0.00000000000000	0.00000000000000	-19.49041500000000	0.00000000000000	
22.74324500000000	8.93991700000000	209.88721799999999	-1.99231200000000	0.41031000000000	0.00000000000000	0.13412000000000	-49.31799700000000	681.34432200000003	-41.28281700000000	0.16779100000000	0.00000000000000	-0.07291100000000	0.00000000000000	-5.54214900000000	0.00000000000000	0.00000000000000	-19.36826100000000	0.00000000000000	
22.74491500000000	10.51268200000000	218.64413800000000	-1.16416000000000	0.41160600000000	0.00000000000000	0.13432500000000	-50.06464700000000	676.25579500000003	-40.60990600000000	0.16690100000000	0.00000000000000	-0.07276300000000	0.00000000000000	-5.23482800000000	0.00000000000000	0.00000000000000	-19.24637700000000	0.00000000000000	
22.74657800000000	12.12829600000000	227.49382299999999	-0.29360100000000	0.41290300000000	0.00000000000000	0.13451900000000	-50.81381700000000	671.04974100000004	-39.92629500000000	0.16602900000000	0.00000000000000	-0.07261000000000	0.00000000000000	-4.89974400000000	0.00000000000000	0.00000000000000	-19.12452300000000	0.00000000000000	
